# xmcd
#
# Track frame offsets: 
#        150
#        9993
#        21657
#        30346
#        39124
#        50539
#        60647
#        74406
#        83136
#        93086
#        103794
#        113868
#        124071
#        133371
#        142521
#        153181
#        164303
#        173809
#        185046
#        194040
#        204738
#        216654
#        228592
#        238604
#        248565
#        258865
#
# Disc length: 3571 seconds
#
# Revision: 0
# Processed by: cddbd v1.5.2PL0 Copyright (c) Steve Scherf et al.
# Submitted via: ExactAudioCopy v1.0b3
#
DISCID=6c0df11a
DTITLE=Buck Owens - Buck 'Em!: The Music of Buck Owens (1955-1967) (Di
DTITLE=sc 2)
DYEAR=2013
DGENRE=Country
TTITLE0=I Don't Care (Just as Long as You Love Me)
TTITLE1=Don't Let Her Know
TTITLE2=Buck's Polka
TTITLE3=Playboy
TTITLE4=Cryin' Time
TTITLE5=I've Got a Tiger by the Tail
TTITLE6=The Band Keeps Playin' On
TTITLE7=Gonna Have Love
TTITLE8=Before You Go
TTITLE9=Getting Used to Loving You
TTITLE10=Gonna Roll Out the Red Carpet
TTITLE11=Santa Looked a Lot Like Daddy
TTITLE12=We Split the Blanket
TTITLE13=Sam's Place
TTITLE14=(I'll Love You) Forever and Ever
TTITLE15=In the Palm of Your Hand
TTITLE16=Pray Every Day
TTITLE17=Together Again [Live at Carnegie Hall]
TTITLE18=Buckaroo [Live at Carnegie Hall]
TTITLE19=Where Does the Good Times Go [Alternate Version with Strings]
TTITLE20=The Way That I Love You
TTITLE21=Adios, Farewell, Goodbye, Good Luck, So Long [Live in Japan]
TTITLE22=We Were Made for Each Other [Live In Japan]
TTITLE23=Heartbreak Mountain
TTITLE24=How Long Will My Baby Be Gone [Alternate Version]
TTITLE25=The Girl on Sugar Pie Lane
EXTD=
EXTT0=
EXTT1=
EXTT2=
EXTT3=
EXTT4=
EXTT5=
EXTT6=
EXTT7=
EXTT8=
EXTT9=
EXTT10=
EXTT11=
EXTT12=
EXTT13=
EXTT14=
EXTT15=
EXTT16=
EXTT17=
EXTT18=
EXTT19=
EXTT20=
EXTT21=
EXTT22=
EXTT23=
EXTT24=
EXTT25=
PLAYORDER=
